# xmcd
#
# Track frame offsets: 
#        150
#        13587
#        24827
#        38007
#        50997
#        61705
#        76320
#        88377
#        101270
#        115892
#        129340
#        141457
#        152035
#        163347
#        174487
#        185627
#        198687
#        211332
#        225042
#        237362
#        250507
#        264065
#        277392
#        290820
#        302887
#
# Disc length: 4237 seconds
#
# Revision: 3
# Processed by: cddbd v1.5.1PL2 Copyright (c) Steve Scherf et al.
# Submitted via: ExactAudioCopy v0.95b2
#
DISCID=61108b19
DTITLE=Various Artist - 25 Hard To Find Motown Classics  Vol. 3
DYEAR=1986
DGENRE=
TTITLE0=Kim Weston - Take Me In Your Arme (Rock Me A Little While)
TTITLE1=Kim Weston - Looking For The Right Guy
TTITLE2=Kim Weston - Love Me All The Way
TTITLE3=Velvelettes - A Bird In The Hand (Is Worth Two In The Bush)
TTITLE4=Tammi Terrell - Come On And See Me
TTITLE5=Brenda Holloway - Operator
TTITLE6=Brenda Holloway - I'll Be Available
TTITLE7=Brenda Holloway - I'll Always Love You
TTITLE8=Shorty Long - Devil With The Blue Dress
TTITLE9=Supremes - He's My Man
TTITLE10=Edwin Starr - Agent Double O'Soul
TTITLE11=Edwin Starr - Stop Her On Sight (S.O.S.)
TTITLE12=Eddie Holland - Leaving Here
TTITLE13=Eddie Holland - Just Ain't Enough Love
TTITLE14=Eddie Holland - Candy To Me
TTITLE15=Isley Brothers - This Old Heart Of Mind (Is Weak For You)
TTITLE16=Isley Brothers - Behind A Painted Smile
TTITLE17=Spinners - Truly Yours
TTITLE18=Contours - Just A Little Misunderstanding
TTITLE19=Contours - Do You Love Me
TTITLE20=Contours - First I Look At The Purse
TTITLE21=Marv Johnson - Why Do You Want To Let Me Go
TTITLE22=Elgins - Stay In My Lonely Arms
TTITLE23=Elgins - Put Yourself In My Place
TTITLE24=Blinky - I Wouldn't Change The Man He Is
EXTD=
EXTT0=
EXTT1=
EXTT2=
EXTT3=
EXTT4=
EXTT5=
EXTT6=
EXTT7=
EXTT8=
EXTT9=
EXTT10=
EXTT11=
EXTT12=
EXTT13=
EXTT14=
EXTT15=
EXTT16=
EXTT17=
EXTT18=
EXTT19=
EXTT20=
EXTT21=
EXTT22=
EXTT23=
EXTT24=
PLAYORDER=
